<?xml version="1.0" encoding="utf-8"?>
<!-- Generator: Adobe Illustrator 25.3.0, SVG Export Plug-In . SVG Version: 6.00 Build 0)  -->
<svg version="1.1" id="Layer_1" xmlns="http://www.w3.org/2000/svg" xmlns:xlink="http://www.w3.org/1999/xlink" x="0px" y="0px"
	 viewBox="0 0 842.4 597.6" style="enable-background:new 0 0 842.4 597.6;" xml:space="preserve">
<style type="text/css">
	.st0{fill:#EBD7F4;stroke:#000000;stroke-miterlimit:10;}
	.st1{fill:#CCCCCC;stroke:#000000;stroke-miterlimit:10;}
	.st2{fill:#BDCCD4;}
	.st3{fill:#6B7E87;}
	.st4{fill:#FBB03B;}
	.st5{fill:#535D62;}
	.st6{fill:#FFFFFF;}
	.st7{fill:#F2F2F2;}
	.st8{fill:none;}
	.st9{font-family:'ArialMT';}
	.st10{font-size:15.2972px;}
	.st11{fill:#F7DBA4;stroke:#000000;stroke-miterlimit:10;}
	.st12{opacity:0.4;fill:#5CC4E0;stroke:#000000;stroke-miterlimit:10;enable-background:new    ;}
	.st13{fill:#A8A5A7;}
	.st14{opacity:0.3;fill:#439EE8;enable-background:new    ;}
	.st15{fill:#F9F8F9;}
	.st16{fill:#6D6D6C;stroke:#6D6D6C;stroke-miterlimit:10;}
	.st17{fill:#434A54;}
	.st18{fill:#656D78;}
	.st19{fill:#A0D468;}
	.st20{fill:#AAB2BC;}
	.st21{fill:#ED5564;}
	.st22{fill:#FFCE54;}
	.st23{fill:#DA4453;}
	.st24{fill:#EBE5D3;}
	.st25{opacity:0.1;fill:#040000;enable-background:new    ;}
	.st26{fill:#3C5370;}
	.st27{opacity:0.1;fill:#FFFFFF;enable-background:new    ;}
	.st28{fill:#EAEAEA;}
	.st29{fill:#C6A97F;}
	.st30{opacity:7.000000e-02;fill:#040000;enable-background:new    ;}
	.st31{fill:none;stroke:#C91100;stroke-width:2;stroke-miterlimit:10;}
	.st32{fill:none;stroke:#FF0000;stroke-width:2;stroke-miterlimit:10;}
	.st33{fill:none;stroke:#0000FF;stroke-width:2;stroke-miterlimit:10;}
	.st34{font-size:13.399px;}
	.st35{fill:none;stroke:#000000;stroke-miterlimit:10;}
	.st36{fill:none;stroke:#000000;stroke-width:2;stroke-miterlimit:10;}
	.st37{font-size:12px;}
	.st38{fill:#E6F7B7;stroke:#000000;stroke-miterlimit:10;}
	.st39{font-size:11px;}
	.st40{fill-rule:evenodd;clip-rule:evenodd;fill:#D0FCFB;stroke:#000000;stroke-miterlimit:10;}
	.st41{fill:#8DFCFC;stroke:#000000;stroke-miterlimit:10;}
	.st42{fill-rule:evenodd;clip-rule:evenodd;fill:#CDCACA;}
	.st43{fill-rule:evenodd;clip-rule:evenodd;}
	.st44{fill-rule:evenodd;clip-rule:evenodd;fill:url(#SVGID_1_);}
	.st45{fill-rule:evenodd;clip-rule:evenodd;fill:url(#SVGID_2_);}
	.st46{fill-rule:evenodd;clip-rule:evenodd;fill:url(#SVGID_3_);}
	.st47{fill-rule:evenodd;clip-rule:evenodd;fill:url(#SVGID_4_);}
	.st48{fill-rule:evenodd;clip-rule:evenodd;fill:url(#SVGID_5_);}
	.st49{fill-rule:evenodd;clip-rule:evenodd;fill:#313C40;}
	.st50{fill-rule:evenodd;clip-rule:evenodd;fill:url(#SVGID_6_);}
	.st51{fill-rule:evenodd;clip-rule:evenodd;fill:url(#SVGID_7_);}
	.st52{fill-rule:evenodd;clip-rule:evenodd;fill:url(#SVGID_8_);}
	.st53{fill-rule:evenodd;clip-rule:evenodd;fill:url(#SVGID_9_);}
	.st54{fill-rule:evenodd;clip-rule:evenodd;fill:url(#SVGID_10_);}
	.st55{fill-rule:evenodd;clip-rule:evenodd;fill:url(#SVGID_11_);}
	.st56{fill-rule:evenodd;clip-rule:evenodd;fill:url(#SVGID_12_);}
	.st57{fill-rule:evenodd;clip-rule:evenodd;fill:url(#SVGID_13_);}
	.st58{fill-rule:evenodd;clip-rule:evenodd;fill:#0B191A;}
	.st59{fill-rule:evenodd;clip-rule:evenodd;fill:url(#SVGID_14_);}
	.st60{fill-rule:evenodd;clip-rule:evenodd;fill:url(#SVGID_15_);}
	.st61{fill-rule:evenodd;clip-rule:evenodd;fill:url(#SVGID_16_);}
	.st62{fill-rule:evenodd;clip-rule:evenodd;fill:#27292A;}
	.st63{fill-rule:evenodd;clip-rule:evenodd;fill:url(#SVGID_17_);}
	.st64{fill-rule:evenodd;clip-rule:evenodd;fill:#101212;}
	.st65{fill-rule:evenodd;clip-rule:evenodd;fill:#191919;}
	.st66{fill-rule:evenodd;clip-rule:evenodd;fill:#7B7B7B;}
	.st67{fill-rule:evenodd;clip-rule:evenodd;fill:#2A2A2A;}
	.st68{fill-rule:evenodd;clip-rule:evenodd;fill:url(#SVGID_18_);}
	.st69{fill-rule:evenodd;clip-rule:evenodd;fill:url(#SVGID_19_);}
	.st70{fill-rule:evenodd;clip-rule:evenodd;fill:url(#SVGID_20_);}
	.st71{fill-rule:evenodd;clip-rule:evenodd;fill:url(#SVGID_21_);}
	.st72{fill-rule:evenodd;clip-rule:evenodd;fill:url(#SVGID_22_);}
	.st73{fill-rule:evenodd;clip-rule:evenodd;fill:url(#SVGID_23_);}
	.st74{fill-rule:evenodd;clip-rule:evenodd;fill:url(#SVGID_24_);}
	.st75{fill-rule:evenodd;clip-rule:evenodd;fill:#1C2326;}
	.st76{fill-rule:evenodd;clip-rule:evenodd;fill:#395253;}
	.st77{fill-rule:evenodd;clip-rule:evenodd;fill:#1A40A3;}
	.st78{fill-rule:evenodd;clip-rule:evenodd;fill:#161E1F;}
	.st79{fill-rule:evenodd;clip-rule:evenodd;fill:url(#SVGID_25_);}
	.st80{fill-rule:evenodd;clip-rule:evenodd;fill:url(#start_2_);}
	.st81{fill-rule:evenodd;clip-rule:evenodd;fill:#FFFFFF;}
	.st82{fill-rule:evenodd;clip-rule:evenodd;fill:#E32332;}
	.st83{fill:none;stroke:#161E1F;stroke-width:2;stroke-linecap:round;stroke-linejoin:round;stroke-miterlimit:3;}
	.st84{fill-rule:evenodd;clip-rule:evenodd;fill:url(#stop_2_);}
	.st85{fill-rule:evenodd;clip-rule:evenodd;fill:url(#SVGID_26_);}
	.st86{fill-rule:evenodd;clip-rule:evenodd;fill:url(#reset_1_);}
	.st87{font-size:15.7851px;}
	.st88{fill:#070707;stroke:#000000;stroke-miterlimit:10;}
</style>
<rect y="0" class="st0" width="842.4" height="597.6"/>
<path class="st1" d="M340.3,401.7v96.6c0,6.7,5.4,12.1,12.1,12.1h77.3c6.7,0,12.1-5.4,12.1-12.1v-96.6H340.3L340.3,401.7z"/>
<g>
	<path class="st2" d="M763.8,519.5H627.6c-6.4,0-11.5-5.1-11.5-11.5V371.9c0-6.4,5.1-11.5,11.5-11.5h136.2c6.4,0,11.5,5.1,11.5,11.5
		v136.2C775.3,514.4,770.2,519.5,763.8,519.5z"/>
	<g>
		<path class="st3" d="M686,406.6h-37.1c-12.5,0-22.5,4.4-22.5,9.7v80.6c0,5.4,10.1,9.7,22.5,9.7h91.9c12.5,0,22.5-4.4,22.5-9.7
			v-85.2h-65.5v-5.1H686L686,406.6z"/>
	</g>
	<rect x="616.2" y="388.6" class="st4" width="43.7" height="7.7"/>
	<g>
		<path class="st5" d="M754.8,499.4c0,5.4-4.5,9.6-9.9,9.6h10.2c5.4,0,9.6-4.2,9.6-9.6v-80.6c0-5.4-4.2-9.6-9.6-9.6H745
			c5.4,0,9.9,4.2,9.9,9.6v80.6H754.8z"/>
		<path class="st5" d="M637.3,418.8c0-5.4,4.4-9.6,9.7-9.6h-10.2c-5.4,0-10.1,4.2-10.1,9.6v80.6c0,5.4,4.7,9.6,10.1,9.6H647
			c-5.4,0-9.7-4.2-9.7-9.6V418.8z"/>
	</g>
	<rect x="731.6" y="388.6" class="st4" width="43.7" height="7.7"/>
	<path class="st3" d="M775.3,388.6H616.2v-16.7c0-6.1,4.9-11,11-11h137.1c6.1,0,11,4.9,11,11L775.3,388.6L775.3,388.6z"/>
	<path class="st6" d="M734.1,409.2c0-21.2-17.2-38.4-38.4-38.4s-38.4,17.1-38.4,38.4v5.1h76.8L734.1,409.2L734.1,409.2z"/>
	<path class="st7" d="M672.6,407.5c0-12.7,10.4-23.1,23.1-23.1s23.1,10.4,23.1,23.1v5.1h-46.2L672.6,407.5L672.6,407.5z"/>
	<path d="M753.2,406.6h-16v5h16c4,0,7.2,3.2,7.2,7.2v80.6c0,4-3.2,7.2-7.2,7.2h-38.5v5h38.4c6.7,0,12.2-5.5,12.2-12.2v-80.6
		C765.5,412.1,760,406.6,753.2,406.6z"/>
	<path d="M767.5,344.7H624.1c-8.3,0-15,6.9-15,15.4v146.5c0,8.5,6.7,15.4,15,15.4h143.4c8.3,0,15-6.9,15-15.4V360.1
		C782.5,351.6,775.8,344.7,767.5,344.7z M618.7,391.1h40.2c-0.4,0.9-0.9,1.7-1.2,2.6h-38.9L618.7,391.1L618.7,391.1z M673.5,380.8
		c5.5-4.2,12.2-7,19.6-7.6v6.9h5v-6.9c7.5,0.5,14.3,3.2,19.8,7.6l-4,4l3.5,3.5l4.2-4.2c5.2,5.4,8.7,12.4,9.7,20h-7.7v5h8v2.6H698
		v-5.4h-5v5.4h-33.4V409h8v-5h-7.7c1.1-7.7,4.6-14.7,9.7-20l4.2,4.2l3.5-3.5L673.5,380.8z M772.8,507.8c0,5.1-4.1,9.2-9.2,9.2H628
		c-5.1,0-9.2-4.1-9.2-9.2V398.9H656c-0.9,3.2-1.4,6.7-1.4,10.4v7.7h82.2v-7.7c0-3.6-0.5-7-1.4-10.4h37.3L772.8,507.8L772.8,507.8
		L772.8,507.8z M772.8,393.9h-38.9c-0.4-0.9-0.7-1.7-1.2-2.6h40.2L772.8,393.9L772.8,393.9z M772.8,386.1h-43
		c-7.4-10.9-19.8-18-34.1-18c-14.2,0-26.6,7.1-34.1,18h-43V372c0-5.1,4.1-9.2,9.2-9.2h135.6c5.1,0,9.2,4.1,9.2,9.2L772.8,386.1
		L772.8,386.1z"/>
	<g>
		<rect x="626.6" y="370.8" class="st6" width="30.7" height="5"/>
		<rect x="759.8" y="370.8" class="st6" width="5" height="5"/>
		<rect x="749.5" y="370.8" class="st6" width="5.4" height="5"/>
		<rect x="739.5" y="370.8" class="st6" width="5" height="5"/>
	</g>
	<path d="M638.8,406.6h16v5h-16c-4,0-7.2,3.2-7.2,7.2v80.6c0,4,3.2,7.2,7.2,7.2h38.4v5h-38.4c-6.7,0-12.2-5.5-12.2-12.2v-80.6
		C626.6,412.1,632.1,406.6,638.8,406.6z"/>
	<path d="M716.7,506.7h-39.4c0.1,1.1,0.1,2.2,0,3.2c0,0.4,0,0.6,0,1c0,0.2,0,0.5,0,0.7h39.3C716.7,509.9,716.6,508.3,716.7,506.7z"
		/>
	<rect x="662.4" y="389.1" class="st8" width="65.1" height="18.7"/>
	<text transform="matrix(1 0 0 1 690.9396 400.0256)" class="st9 st10">0</text>
</g>
<rect x="356.3" y="420.3" class="st11" width="13.8" height="84"/>
<rect id="cathod" x="386.8" y="420.8" class="st11" width="13.8" height="84"/>
<rect x="415.3" y="420.3" class="st11" width="13.8" height="84"/>
<path class="st12" d="M340.3,442.8v55.5c0,6.7,5.4,12.1,12.1,12.1h77.3c6.7,0,12.1-5.4,12.1-12.1v-55.5H340.3L340.3,442.8z"/>
<polygon class="st13" points="351.2,442.7 351.2,401.7 340.3,401.7 340.3,442.7 340.3,442.8 351.2,442.8 "/>
<path class="st14" d="M351.2,498.3v-55.5h-10.9v55.5c0,6.7,5.4,12.1,12.1,12.1h10.9C356.6,510.4,351.2,505,351.2,498.3z"/>
<path class="st1" d="M457.9,392h-128c-1.7,0-3,1.4-3,3v3.6c0,1.7,1.4,3,3,3h128c1.7,0,3-1.4,3-3V395
	C460.9,393.4,459.6,392,457.9,392z"/>
<rect x="383.6" y="392" class="st15" width="27" height="9.7"/>
<path class="st16" d="M363.2,420.7L363.2,420.7c-0.6,0-1-0.5-1-1v-55.2c0-0.6,0.5-1,1-1l0,0c0.6,0,1,0.5,1,1v55.2
	C364.3,420.2,363.8,420.7,363.2,420.7z"/>
<path class="st16" d="M422,420.7L422,420.7c-0.6,0-1-0.5-1-1v-55.2c0-0.6,0.5-1,1-1l0,0c0.6,0,1,0.5,1,1v55.2
	C423,420.2,422.6,420.7,422,420.7z"/>
<path class="st16" d="M393.8,420.7L393.8,420.7c-0.6,0-1-0.5-1-1v-55.2c0-0.6,0.5-1,1-1l0,0c0.6,0,1,0.5,1,1v55.2
	C394.9,420.2,394.4,420.7,393.8,420.7z"/>
<g>
	<path class="st17" d="M132.9,261.7H85.3c-7.3,0-13.2,5.9-13.2,13.2v68.7c0,7.3,5.9,13.2,13.2,13.2h47.6c7.3,0,13.2-5.9,13.2-13.2
		v-68.7C146.2,267.7,140.2,261.7,132.9,261.7z"/>
</g>
<path class="st18" d="M132.9,256.4H85.3c-7.3,0-13.2,5.9-13.2,13.2v68.7c0,7.3,5.9,13.2,13.2,13.2h47.6c7.3,0,13.2-5.9,13.2-13.2
	v-68.7C146.2,262.4,140.2,256.4,132.9,256.4z"/>
<rect x="82.7" y="267" class="st19" width="52.9" height="26.4"/>
<g>
	<path class="st20" d="M111,299.5c1,1,1,2.7,0,3.7s-2.7,1-3.7,0s-1-2.7,0-3.7S110,298.5,111,299.5z"/>
	<path class="st20" d="M111,341.8c1,1,1,2.7,0,3.7s-2.7,1-3.7,0s-1-2.7,0-3.7S110,340.8,111,341.8z"/>
	<path class="st20" d="M99.3,301.7c1.4,0.4,2.2,1.8,1.9,3.2c-0.4,1.4-1.8,2.2-3.2,1.9c-1.4-0.4-2.2-1.8-1.9-3.2
		C96.4,302.1,97.9,301.3,99.3,301.7z"/>
	<path class="st20" d="M120.4,338.3c1.4,0.4,2.2,1.8,1.9,3.2c-0.4,1.4-1.8,2.2-3.2,1.9c-1.4-0.4-2.2-1.8-1.9-3.2
		C117.5,338.7,119,337.9,120.4,338.3z"/>
	<path class="st20" d="M90.2,309.4c1.4-0.4,2.9,0.5,3.2,1.9c0.4,1.4-0.5,2.9-1.9,3.2c-1.4,0.4-2.9-0.5-3.2-1.9
		C87.9,311.2,88.7,309.8,90.2,309.4z"/>
	<path class="st20" d="M126.8,330.5c1.4-0.4,2.9,0.5,3.2,1.9c0.4,1.4-0.5,2.9-1.9,3.2c-1.4,0.4-2.9-0.5-3.2-1.9
		C124.5,332.4,125.4,330.9,126.8,330.5z"/>
	<path class="st20" d="M86.1,320.6c1-1,2.7-1,3.7,0s1,2.7,0,3.7s-2.7,1-3.7,0C85.1,323.4,85.1,321.7,86.1,320.6z"/>
	<path class="st20" d="M128.4,320.6c1-1,2.7-1,3.7,0s1,2.7,0,3.7s-2.7,1-3.7,0C127.4,323.4,127.4,321.7,128.4,320.6z"/>
	<path class="st20" d="M88.3,332.4c0.4-1.4,1.8-2.2,3.2-1.9c1.4,0.4,2.2,1.8,1.9,3.2c-0.4,1.4-1.8,2.2-3.2,1.9
		C88.7,335.3,87.9,333.8,88.3,332.4z"/>
	<path class="st20" d="M124.9,311.3c0.4-1.4,1.8-2.2,3.2-1.9c1.4,0.4,2.2,1.8,1.9,3.2c-0.4,1.4-1.8,2.2-3.2,1.9
		C125.4,314.1,124.5,312.7,124.9,311.3z"/>
	<path class="st20" d="M96,341.5c-0.4-1.4,0.5-2.9,1.9-3.2c1.4-0.4,2.9,0.5,3.2,1.9c0.4,1.4-0.5,2.9-1.9,3.2
		C97.9,343.8,96.4,342.9,96,341.5z"/>
	<path class="st20" d="M117.2,304.9c-0.4-1.4,0.5-2.9,1.9-3.2c1.4-0.4,2.9,0.5,3.2,1.9c0.4,1.4-0.5,2.9-1.9,3.2
		S117.5,306.3,117.2,304.9z"/>
</g>
<g>
	<path class="st17" d="M130.4,304.7c-0.4-1.4,0.5-2.9,1.9-3.2c1.4-0.4,2.9,0.5,3.2,1.9c0.4,1.4-0.5,2.9-1.9,3.2
		C132.2,306.9,130.8,306.1,130.4,304.7z"/>
	<path class="st17" d="M82.8,304.7c-0.4-1.4,0.5-2.9,1.9-3.2c1.4-0.4,2.9,0.5,3.2,1.9c0.4,1.4-0.5,2.9-1.9,3.2
		C84.6,306.9,83.2,306.1,82.8,304.7z"/>
</g>
<path class="st20" d="M120.4,333.7c-6.2,6.2-16.2,6.2-22.4,0s-6.2-16.2,0-22.4c6.2-6.2,16.2-6.2,22.4,0
	C126.6,317.5,126.6,327.5,120.4,333.7z"/>
<g>
	<path class="st21" d="M105,102.7h2c0.3,0,0.5-0.2,0.5-0.5V91.8c0-0.3-0.2-0.5-0.5-0.5h-2c-0.3,0-0.5,0.2-0.5,0.5v10.4
		C104.5,102.4,104.7,102.7,105,102.7z"/>
	<g>
		<path class="st22" d="M106,101.8c0.3,0,0.5,0.2,0.5,0.5v3.5c0,0.3-0.2,0.5-0.5,0.5s-0.5-0.2-0.5-0.5v-3.5
			C105.5,102,105.7,101.8,106,101.8z"/>
	</g>
	<path class="st23" d="M105,102.7h2c0.3,0,0.5-0.2,0.5-0.5v-1h-3v1C104.5,102.4,104.7,102.7,105,102.7z"/>
</g>
<g>
	<g>
		<path class="st22" d="M507.3,137.3c0,0.4-0.3,0.8-0.8,0.8h-5.3c-0.4,0-0.8-0.3-0.8-0.8c0-0.4,0.3-0.8,0.8-0.8h5.3
			C506.9,136.6,507.3,136.9,507.3,137.3z"/>
	</g>
	<path class="st18" d="M506,135.8v3c0,0.4,0.3,0.8,0.8,0.8h15.9c0.4,0,0.8-0.3,0.8-0.8v-3c0-0.4-0.3-0.8-0.8-0.8h-15.9
		C506.3,135.1,506,135.4,506,135.8z"/>
	<path class="st17" d="M506,135.8v3c0,0.4,0.3,0.8,0.8,0.8h1.5v-4.5h-1.5C506.3,135.1,506,135.4,506,135.8z"/>
</g>
<g>
	<g>
		<g>
			<g>
				<path class="st24" d="M111.9,107l0.1,12.8c0,0.9-0.7,1.6-1.5,1.6h-8.8c-0.8,0-1.5-0.7-1.6-1.6L99.9,107c0-0.9,0.7-1.7,1.5-1.7
					h8.9C111.2,105.3,111.9,106.1,111.9,107z"/>
				<path class="st24" d="M133.7,107l-0.2,12.8c0,0.9-0.7,1.6-1.6,1.6h-8.8c-0.8,0-1.5-0.7-1.5-1.6l0.1-12.8c0-0.9,0.7-1.7,1.6-1.7
					h8.9C133,105.3,133.7,106.1,133.7,107z"/>
			</g>
			<polygon class="st25" points="111.9,110.5 111.9,118.6 100.1,118.6 99.9,110.5 			"/>
			<polygon class="st25" points="133.6,110.5 133.5,118.6 121.6,118.6 121.7,110.5 			"/>
		</g>
		<path class="st26" d="M142.3,116v1.1l-0.2,6.9l-0.3,13.4l-0.2,7.5l-0.8,35.1c0,1.5-1.3,2.7-2.7,2.7H96.5c-0.2,0-0.3,0-0.4,0
			c-1.6-0.2-2.9-1.5-3.2-3.1l0,0c0-0.1,0-0.2,0-0.3L92,146.5v-1.7l-0.2-8.1l-0.3-12.8l-0.2-6.9v-1.1c0-1.7,1.2-3,2.8-3h45.4l0,0
			c1.5,0,2.6,1.2,2.7,2.7C142.3,115.8,142.3,115.9,142.3,116z"/>
		<path class="st27" d="M142.3,116v1.2c0-1.7-1.2-3-2.8-3H94.1c-1.6,0-2.8,1.4-2.8,3V116c0-1.7,1.2-3,2.8-3h45.4
			C141.1,112.9,142.3,114.3,142.3,116z"/>
		<path class="st24" d="M140.8,178.3v1.6c0,1.5-1.3,2.7-2.7,2.7H96.5c-0.2,0-0.3,0-0.4,0c-1.6-0.2-2.9-1.5-3.2-3.1l0,0
			c0-0.1,0-0.2,0-0.3v-0.7c0.6,0.3,1.3,0.5,2,0.5h44C139.5,178.8,140.2,178.6,140.8,178.3z"/>
		<polygon class="st28" points="142.1,123.9 141.6,144.8 92,144.8 91.5,123.9 		"/>
		<polygon class="st28" points="111.4,176.6 109.5,176.6 109.3,147.7 111.2,147.7 		"/>
		<g>
			<path class="st29" d="M103.1,135.9c0-0.1-0.1-0.2-0.2-0.3s-0.2-0.2-0.2-0.3c-0.2-0.2-0.4-0.3-0.6-0.4c-0.2-0.1-0.5-0.2-0.7-0.3
				c0.4-0.1,0.7-0.4,1-0.7s0.4-0.8,0.4-1.3s-0.1-0.9-0.3-1.2c-0.2-0.3-0.5-0.6-0.9-0.8s-0.8-0.3-1.4-0.4c-0.5-0.1-1.2-0.1-1.8-0.1
				h-2.3l0.2,9.4h2.4c0.1,0,0.2,0,0.3,0c1.4,0,2.4-0.2,3.1-0.6c0.8-0.4,1.1-1.1,1.1-2C103.3,136.5,103.3,136.2,103.1,135.9z
				 M98.2,132.1h0.7c0.6,0,1.1,0.1,1.3,0.2c0.3,0.1,0.4,0.3,0.4,0.7c0,0.3-0.1,0.6-0.4,0.7c-0.3,0.1-0.7,0.2-1.3,0.2h-0.7V132.1z
				 M99,137.5h-0.7v-2.1H99c0.7,0,1.2,0.1,1.6,0.2c0.3,0.2,0.5,0.4,0.5,0.8c0,0.2,0,0.3-0.1,0.5c-0.1,0.1-0.2,0.2-0.3,0.3
				c-0.2,0.1-0.4,0.1-0.6,0.2C99.8,137.5,99.5,137.5,99,137.5z"/>
			<path class="st29" d="M109.8,135.9c0-0.6-0.1-1-0.2-1.4s-0.3-0.6-0.5-0.9c-0.2-0.2-0.5-0.4-0.8-0.5s-0.7-0.1-1-0.1
				c-0.6,0-1.1,0.1-1.6,0.2c-0.3,0.1-0.5,0.1-0.7,0.2c-0.1,0-0.2,0.1-0.3,0.1v0.2l0.3,1.6c1.9-0.4,2.7-0.3,2.6,0.3
				c-0.5,0-1,0.1-1.4,0.1c-0.4,0.1-0.8,0.2-1.1,0.4c-0.3,0.2-0.6,0.4-0.8,0.7c-0.2,0.3-0.3,0.6-0.3,1.1c0,0.3,0,0.5,0.1,0.7
				s0.2,0.4,0.4,0.6s0.3,0.3,0.6,0.3c0.2,0.1,0.5,0.1,0.7,0.1c0.4,0,0.8-0.1,1.1-0.2c0.3-0.1,0.6-0.3,0.9-0.4l0.1,0.5h1.8
				L109.8,135.9z M107.8,137.5c-0.1,0.1-0.3,0.2-0.5,0.3s-0.4,0.1-0.6,0.1c-0.3,0-0.4-0.2-0.4-0.5c0-0.2,0.1-0.3,0.4-0.5
				c0.2-0.2,0.6-0.2,1.2-0.2L107.8,137.5L107.8,137.5z"/>
			<path class="st29" d="M115,137.7c-0.1,0-0.2,0-0.3,0s-0.2,0-0.3,0c-0.3,0-0.5-0.1-0.6-0.2c-0.1-0.1-0.2-0.4-0.2-0.7V135h1.5v-1.9
				h-1.5v-2h-2.1v2h-0.9v1.9h0.9v2.1c0,0.5,0.1,0.9,0.2,1.2s0.3,0.6,0.5,0.8s0.4,0.3,0.7,0.4c0.3,0.1,0.6,0.1,0.9,0.1s0.6,0,0.8-0.1
				c0.3,0,0.5-0.1,0.7-0.1L115,137.7z"/>
			<path class="st29" d="M120.2,137.7c-0.1,0-0.2,0-0.3,0s-0.2,0-0.3,0c-0.3,0-0.5-0.1-0.6-0.2c-0.1-0.1-0.2-0.4-0.2-0.7V135h1.5
				v-1.9h-1.5v-2h-2.1v2h-0.9v1.9h0.9v2.1c0,0.5,0.1,0.9,0.2,1.2s0.3,0.6,0.5,0.8s0.4,0.3,0.7,0.4c0.3,0.1,0.6,0.1,0.9,0.1
				s0.6,0,0.8-0.1c0.3,0,0.5-0.1,0.7-0.1L120.2,137.7z"/>
			<path class="st29" d="M125.7,137.5c-0.1,0-0.3,0.1-0.4,0.1s-0.3,0.1-0.4,0.1c-0.2,0-0.3,0-0.4,0c-0.4,0-0.7-0.1-0.9-0.2
				c-0.2-0.1-0.4-0.3-0.4-0.6h3.6c0-0.7,0-1.3-0.2-1.8s-0.3-0.9-0.6-1.2c-0.2-0.3-0.5-0.5-0.9-0.7c-0.3-0.1-0.7-0.2-1.1-0.2
				c-0.3,0-0.7,0.1-1,0.2c-0.4,0.1-0.7,0.3-0.9,0.6c-0.3,0.3-0.5,0.6-0.7,1s-0.3,0.9-0.3,1.5s0.1,1,0.2,1.5c0.2,0.4,0.4,0.7,0.7,1
				s0.6,0.5,1,0.6s0.9,0.2,1.3,0.2s0.9,0,1.2-0.1c0.4-0.1,0.7-0.2,0.9-0.3l-0.4-1.7C126,137.4,125.9,137.5,125.7,137.5z M124,134.8
				c0.5,0,0.8,0.3,0.8,0.9h-1.7C123.2,135.1,123.5,134.8,124,134.8z"/>
			<path class="st29" d="M131.2,133.2c-0.2,0.1-0.4,0.1-0.5,0.2c-0.2,0.1-0.3,0.1-0.5,0.2c-0.1,0.1-0.3,0.1-0.4,0.2l-0.1-0.6h-1.8
				l-0.1,6.3h2v-3.8c0.2-0.1,0.5-0.2,0.8-0.3s0.6-0.2,1-0.3V133C131.5,133.1,131.4,133.1,131.2,133.2z"/>
			<path class="st29" d="M136.8,133.1l-1.4,3.4l-1.1-3.4h-2.2l2.1,6.3l-1,2.6h2l3.5-8.8L136.8,133.1L136.8,133.1z"/>
		</g>
	</g>
	<path class="st30" d="M142.7,123.9l0.1-5.4l-49.6,49.6l0.3,10.9c0,0.1,0,0.2,0,0.3l0,0c0.2,1.6,1.5,2.9,3.2,3.1c0.1,0,0.3,0,0.4,0
		h41.6c1.5,0,2.7-1.2,2.7-2.7l0.8-35.1l0,0L142.7,123.9L142.7,123.9L142.7,123.9L142.7,123.9z"/>
	<path class="st30" d="M142.1,123.9l0.1-5.4l-49.6,49.6l0.3,10.9c0,0.1,0,0.2,0,0.3l0,0c0.2,1.6,1.5,2.9,3.2,3.1c0.1,0,0.3,0,0.4,0
		h41.6c1.5,0,2.7-1.2,2.7-2.7l0.8-35.1l0,0L142.1,123.9L142.1,123.9L142.1,123.9L142.1,123.9z"/>
</g>
<path d="M414.6,130.9l12.3,18.4l12.3-18.4l4.2,6.1L421,159.4l-1.7-1.7l-7.7,13.4l13.4-7.7l-1.7-1.7l21.7-22l6.4,9.6l12.3-18.4
	l12.3,18.4l7-10.6h17.6v-3.1h-19.3l-5.3,8l-12.3-18.4l-12.3,18.4l-4.2-6.1l31.3-31.4l-2.1-2.1l-30.9,30.8l-6.4-9.6l-12.3,18.4
	l-12.3-18.4l-7,10.4H390v3.1h19.3L414.6,130.9z"/>
<line class="st31" x1="105.9" y1="91.7" x2="105.9" y2="86.6"/>
<line class="st32" x1="107.1" y1="86.6" x2="38.9" y2="86.6"/>
<line class="st32" x1="39.9" y1="86.1" x2="39.9" y2="304"/>
<line class="st32" x1="39.9" y1="304" x2="86" y2="304"/>
<line class="st33" x1="135.5" y1="303.3" x2="422.2" y2="303.3"/>
<line class="st33" x1="363.2" y1="302.9" x2="363.2" y2="363.2"/>
<line class="st33" x1="393.8" y1="316.6" x2="393.8" y2="364.8"/>
<line class="st33" x1="422.2" y1="303.3" x2="422.2" y2="364.8"/>
<g>
	<path class="st33" d="M394.5,316.6c-5.9-2.4-9.8-8-9.9-14.3c-0.1-6.4,3.8-12.3,9.9-14.8"/>
	<line class="st33" x1="394.5" y1="316.6" x2="394.5" y2="334.9"/>
	<line class="st33" x1="394.5" y1="287.5" x2="394.5" y2="270.2"/>
</g>
<line class="st33" x1="393.9" y1="270.2" x2="553.5" y2="270.2"/>
<line class="st33" x1="553.5" y1="270.2" x2="553.5" y2="138.1"/>
<line class="st33" x1="553.5" y1="138.1" x2="523.5" y2="138.1"/>
<line class="st33" x1="389.5" y1="137.7" x2="338.9" y2="137.7"/>
<line class="st33" x1="127.8" y1="88.6" x2="226.1" y2="88.6"/>
<line class="st33" x1="226.1" y1="88.6" x2="226.1" y2="139.8"/>
<line class="st33" x1="226.1" y1="139.8" x2="237.9" y2="139.8"/>
<line class="st33" x1="553.5" y1="138.1" x2="553.5" y2="138.1"/>
<line class="st33" x1="553.5" y1="136.2" x2="553.5" y2="136.2"/>
<rect x="57.6" y="306" class="st8" width="15.4" height="17.1"/>
<text transform="matrix(1 0 0 1 57.5575 315.5309)" class="st9 st34">+</text>
<text transform="matrix(1 0 0 1 57.5575 315.5309)" class="st35 st9 st34">+</text>
<line class="st36" x1="150.9" y1="311.9" x2="161.6" y2="311.9"/>
<rect x="346.6" y="356.2" class="st8" width="15.4" height="17.1"/>
<text transform="matrix(1 0 0 1 346.5751 365.7477)" class="st9 st34">+</text>
<text transform="matrix(1 0 0 1 346.5751 365.7477)" class="st35 st9 st34">+</text>
<line class="st36" x1="380.3" y1="362.2" x2="391" y2="362.2"/>
<rect x="428.5" y="355.1" class="st8" width="15.4" height="17.1"/>
<text transform="matrix(1 0 0 1 428.5067 364.5807)" class="st9 st34">+</text>
<text transform="matrix(1 0 0 1 428.5067 364.5807)" class="st35 st9 st34">+</text>
<rect x="71.3" y="276.1" class="st8" width="73.1" height="22.8"/>
<text id="ammeter-svg" transform="matrix(1 0 0 1 92.1583 284.5927)" class="st9 st37" id="ammeter-svg">0 amp</text>
<rect x="242" y="165.2" class="st38" width="71" height="24.8"/>
<rect x="241" y="173.5" class="st8" width="73.1" height="18.1"/>
<text transform="matrix(1 0 0 1 260.7413 182.058)" class="st9 st37">Switch</text>
<rect x="401.9" y="180.1" class="st38" width="71" height="24.8"/>
<rect x="399.6" y="187.8" class="st8" width="73.1" height="22.8"/>
<text transform="matrix(1 0 0 1 414.0657 196.2385)" class="st9 st37">Rehostat</text>
<rect x="74.7" y="364.8" class="st38" width="71" height="24.8"/>
<rect x="75.4" y="372.5" class="st8" width="73.1" height="22.8"/>
<text transform="matrix(1 0 0 1 88.2921 380.9935)" class="st9 st37">Ammeter</text>
<rect x="336.3" y="522.6" class="st38" width="112.8" height="34.3"/>
<rect x="327.8" y="529.9" class="st8" width="125.5" height="32.7"/>
<text transform="matrix(1 0 0 1 345.6378 538.4644)" class="st9 st37">Copper Voltmeter</text>
<text transform="matrix(1 0 0 1 373.5378 552.8644)" class="st9 st37">CuSO4</text>
<rect x="640.4" y="356.5" class="st8" width="110.5" height="22.8"/>
<text transform="matrix(1 0 0 1 645.6367 357.6349)" class="st6 st9 st39">Weighing machine</text>
<rect x="404.9" y="83.7" class="st40" width="62.8" height="21.3"/>
<rect x="399.6" y="89.9" class="st8" width="73.1" height="22.8"/>
<text id="resistance-1-display-svg" transform="matrix(1 0 0 1 418.2414 98.4455)" class="st9 st37" id="resistance-1-display-svg">0 ohm</text>
<rect x="95.2" y="189.4" class="st40" width="43.3" height="21.3"/>
<rect x="80.2" y="195.6" class="st8" width="73.1" height="22.8"/>
<text id="voltage-1-display-svg" transform="matrix(1 0 0 1 99.7703 204.0309)" class="st9 st37">12 volt</text>
<g>
	<line class="st35" x1="320.9" y1="471.4" x2="355.6" y2="471.4"/>
	<line class="st35" x1="348.6" y1="465.5" x2="355.6" y2="471.4"/>
	<line class="st35" x1="355.7" y1="471.4" x2="348.7" y2="477.3"/>
</g>
<g>
	<line class="st35" x1="464.2" y1="431" x2="429.5" y2="431"/>
	<line class="st35" x1="436.5" y1="436.9" x2="429.5" y2="431"/>
	<line class="st35" x1="429.4" y1="431" x2="436.4" y2="425.1"/>
</g>
<g>
	<line class="st35" x1="308.6" y1="413.3" x2="393.7" y2="413.3"/>
	<line class="st35" x1="386.7" y1="407.4" x2="393.7" y2="413.3"/>
	<line class="st35" x1="393.8" y1="413.3" x2="386.8" y2="419.1"/>
</g>
<rect x="256.2" y="461.6" class="st38" width="65" height="23.7"/>
<rect x="270.4" y="467.8" class="st8" width="77.7" height="17.9"/>
<text transform="matrix(1 0 0 1 270.4342 476.3182)" class="st9 st37">Anode</text>
<rect x="230.9" y="403.3" class="st38" width="77.1" height="23.7"/>
<rect x="465.3" y="417.9" class="st38" width="70.7" height="23.7"/>
<rect x="246.4" y="409.4" class="st8" width="77.7" height="17.9"/>
<text transform="matrix(1 0 0 1 246.3963 417.9595)" class="st9 st37">Cathode</text>
<rect x="494.9" y="423.5" class="st8" width="77.7" height="17.9"/>
<text transform="matrix(1 0 0 1 482.6497 433.356)" class="st9 st37">Anode</text>
<g>
	<g>
		<path class="st22" d="M128.8,99.6c0.3,0,0.5,0.2,0.5,0.5v3.4c0,0.3-0.2,0.5-0.5,0.5s-0.5-0.2-0.5-0.5v-3.4
			C128.3,99.8,128.5,99.6,128.8,99.6z"/>
	</g>
	<path class="st18" d="M127.8,100.4h1.9c0.3,0,0.5-0.2,0.5-0.5V89.7c0-0.3-0.2-0.5-0.5-0.5h-1.9c-0.3,0-0.5,0.2-0.5,0.5v10.2
		C127.4,100.2,127.6,100.4,127.8,100.4z"/>
	<path class="st17" d="M127.8,100.4h1.9c0.3,0,0.5-0.2,0.5-0.5v-1h-2.9v1C127.4,100.2,127.6,100.4,127.8,100.4z"/>
</g>
<g>
	<path id="calweight" class="st41" d="M675.8,330.3h-88.7c-6.6,0-12-5.4-12-12v-3.5c0-6.6,5.4-12,12-12h88.7c6.6,0,12,5.4,12,12v3.5
		C687.8,324.9,682.4,330.3,675.8,330.3z"/>
	<text id="calweight" transform="matrix(1 0 0 1 592.5133 319.8502)" class="st9 st37">Weight Cathode</text>
</g>
<g>
	<path class="st41" d="M809.2,330.3h-88.7c-6.6,0-12-5.4-12-12v-3.5c0-6.6,5.4-12,12-12h88.7c6.6,0,12,5.4,12,12v3.5
		C821.2,324.9,815.8,330.3,809.2,330.3z"/>
	<text id="connect" transform="matrix(1 0 0 1 719.675 319.8496)" class="st9 st37">Connect Cathode</text>
</g>
<g id="Layer_1_1_">
	<g>
		<path class="st42" d="M783.6,106.5l0.1,0.2H768H612.6l0.1-0.2H768H783.6z M783.6,95.2l0.1,0.2H768H612.7v-0.2H768H783.6z
			 M783.6,72.6l0.1,0.2H768H612.7v-0.2H768H783.6L783.6,72.6z M783.6,83.9l0.1,0.2H768H612.6l0.1-0.2H768H783.6z"/>
		<g>
			<path class="st43" d="M762.4,47.5c5.8,0.1,10.8,2.2,14.8,6.3c4.2,4.2,6.4,9.3,6.4,15.3v66.7c0,6-2.1,11.1-6.4,15.3
				c-4.1,4.1-9,6.3-14.8,6.4H634.3c-0.1,0-0.3,0-0.4,0c-0.5,0-1.1,0-1.6-0.1c-5-0.4-9.4-2.5-13.2-6.1l-0.1-0.1
				c-4.2-4.2-6.3-9.3-6.3-15.3V69.1c0-6,2.1-11.1,6.3-15.3c4.1-4.1,9.1-6.2,14.9-6.3c0.1,0,0.3,0,0.4,0H762.4L762.4,47.5z"/>
		</g>
		<g>
			
				<linearGradient id="SVGID_1_" gradientUnits="userSpaceOnUse" x1="612.7" y1="102.6" x2="784.0726" y2="102.6" gradientTransform="matrix(1 0 0 1 0 1.6)">
				<stop  offset="0" style="stop-color:#2A3A3A"/>
				<stop  offset="3.530000e-02" style="stop-color:#293334"/>
				<stop  offset="7.450000e-02" style="stop-color:#3F4E4F"/>
				<stop  offset="0.1137" style="stop-color:#2A3A3A"/>
				<stop  offset="0.9098" style="stop-color:#252E33"/>
				<stop  offset="0.9412" style="stop-color:#364344"/>
				<stop  offset="0.9686" style="stop-color:#242D2E"/>
			</linearGradient>
			<path class="st44" d="M762.4,49.2c5.8,0.1,10.8,2.2,14.8,6.3c4.2,4.2,6.4,9.3,6.4,15.3v66.7c0,6-2.1,11.1-6.4,15.3
				c-4.1,4.1-9,6.3-14.8,6.4H634.3c-0.1,0-0.3,0-0.4,0c-0.5,0-1.1,0-1.6-0.1c-5-0.4-9.4-2.5-13.2-6.1l-0.1-0.1
				c-4.2-4.2-6.3-9.3-6.3-15.3V70.8c0-6,2.1-11.1,6.3-15.3c4.1-4.1,9.1-6.2,14.9-6.3c0.1,0,0.3,0,0.4,0L762.4,49.2L762.4,49.2z"/>
		</g>
		<g>
			
				<linearGradient id="SVGID_2_" gradientUnits="userSpaceOnUse" x1="154.6932" y1="-1322.4244" x2="159.7295" y2="-1322.4244" gradientTransform="matrix(7.740000e-02 0.997 -1.003 1.314123e-05 -640.4779 -52.3095)">
				<stop  offset="0" style="stop-color:#151515"/>
				<stop  offset="0.1216" style="stop-color:#303030"/>
				<stop  offset="0.4196" style="stop-color:#282828"/>
				<stop  offset="1" style="stop-color:#000000"/>
			</linearGradient>
			<rect x="612.6" y="101.4" class="st45" width="170.9" height="5.2"/>
		</g>
		<g>
			
				<linearGradient id="SVGID_3_" gradientUnits="userSpaceOnUse" x1="143.4048" y1="-1323.2991" x2="148.4412" y2="-1323.2991" gradientTransform="matrix(7.740000e-02 0.997 -1.003 1.314123e-05 -640.4779 -52.3095)">
				<stop  offset="0" style="stop-color:#151515"/>
				<stop  offset="0.1216" style="stop-color:#303030"/>
				<stop  offset="0.4196" style="stop-color:#282828"/>
				<stop  offset="1" style="stop-color:#000000"/>
			</linearGradient>
			<rect x="612.6" y="90.1" class="st46" width="170.9" height="5.2"/>
		</g>
		<g>
			
				<linearGradient id="SVGID_4_" gradientUnits="userSpaceOnUse" x1="132.1604" y1="-1324.2657" x2="137.1967" y2="-1324.2657" gradientTransform="matrix(7.740000e-02 0.997 -1.003 1.314123e-05 -640.4779 -52.3095)">
				<stop  offset="0" style="stop-color:#151515"/>
				<stop  offset="0.1216" style="stop-color:#303030"/>
				<stop  offset="0.4196" style="stop-color:#282828"/>
				<stop  offset="1" style="stop-color:#000000"/>
			</linearGradient>
			<rect x="612.7" y="78.9" class="st47" width="170.9" height="5.2"/>
		</g>
		<g>
			
				<linearGradient id="SVGID_5_" gradientUnits="userSpaceOnUse" x1="120.6547" y1="-1325.0831" x2="125.6911" y2="-1325.0831" gradientTransform="matrix(7.740000e-02 0.997 -1.003 1.314123e-05 -640.4779 -52.3095)">
				<stop  offset="0" style="stop-color:#333333"/>
				<stop  offset="0.4196" style="stop-color:#282828"/>
				<stop  offset="1" style="stop-color:#000000"/>
			</linearGradient>
			<path class="st48" d="M783.4,67.5c0.2,1.5,0.3,2.8,0.3,3.9c0,1,0,1.4-0.1,1.2H612.7c-0.1-1.6,0-3.3,0.2-5.2L783.4,67.5
				L783.4,67.5z"/>
		</g>
		<g>
			<path class="st49" d="M703.1,79h-0.6h-0.9H700h-40h-2.1h-10h-0.8h-13h-21.4c-1.3-1.8-1.3-3.9,0-6.3h21.4h13h0.8h10h2.1h40h1.7
				h0.9h0.6h59h7.6h5.3h8.6c1.3,2.4,1.3,4.5,0,6.3h-21.5H703.1z"/>
		</g>
		<g>
			<path class="st49" d="M703.1,90.2h-0.6h-0.8H700h-40h-2.1H648h-0.9h-13h-21.4c-1.3-1.8-1.3-3.9,0-6.3h21.4h13h0.9h9.9h2.1h39.9
				h1.7h0.8h0.6h59h7.5h5.3h8.7c1.3,2.4,1.3,4.5,0,6.3H762H703.1z"/>
		</g>
		<g>
			<path class="st49" d="M702.5,95.2h0.6h59h7.5h5.3h8.7c1.3,2.4,1.3,4.5,0,6.3h-21.5h-59h-0.6h-0.8H700h-40h-2.1H648h-0.9h-13
				h-21.4c-1.3-1.8-1.3-3.9,0-6.3h21.4h13h0.9h9.9h2.1h40h1.7H702.5z"/>
		</g>
		<g>
			<path class="st49" d="M699.9,106.4h1.7h0.8h0.6h59h7.6h5.3h8.6c1.3,2.4,1.3,4.5,0,6.3H762h-59h-0.6h-0.8h-1.7h-40h-2.1h-9.9H647
				h-13h-21.4c-1.3-1.8-1.3-3.9,0-6.3H634h13h0.9h9.9h2.1H699.9z"/>
		</g>
		<g>
			<path class="st43" d="M684.8,56.5h3.9h15.6h0.6h10h0.6h6.5h4.3H765c4.9,0,7.4,2.5,7.4,7.4v81.7c0,4.9-2.5,7.4-7.4,7.4h-38.7H722
				h-6.5h-0.6h-10h-0.6h-15.6h-3.9h-53.6c-4.9,0-7.4-2.5-7.4-7.4V63.9c0-4.9,2.5-7.4,7.4-7.4C631.1,56.5,684.8,56.5,684.8,56.5z"/>
		</g>
		
			<linearGradient id="SVGID_6_" gradientUnits="userSpaceOnUse" x1="698.1099" y1="155.1567" x2="698.0898" y2="49.1045" gradientTransform="matrix(1 0 0 1 0 1.6)">
			<stop  offset="0" style="stop-color:#2A3A3A"/>
			<stop  offset="0.9098" style="stop-color:#252E33"/>
			<stop  offset="0.9412" style="stop-color:#435454"/>
			<stop  offset="0.9569" style="stop-color:#353F40"/>
			<stop  offset="0.9765" style="stop-color:#2C3637"/>
			<stop  offset="1" style="stop-color:#242D2E"/>
		</linearGradient>
		<path class="st50" d="M717.9,57h4.3h8.2h2.2H764c4.9,0,7.4,2.5,7.4,7.4v24.2v2.2v14.7v2.2v4.1v4.3v1.7v2.2v7.4v1.6v15.8
			c0,4.9-2.5,7.4-7.4,7.4h-31.4h-2.2h-8.2h-4.3h-63.6h-2.2h-19.9c-4.9,0-7.4-2.5-7.4-7.4V129v-1.6v-4.9V120v-2.2v-1.7v-4.3v-4.1
			v-2.2V90.7v-2.2V64.4c0-4.9,2.5-7.4,7.4-7.4h19.9h2.2C654.2,57,717.9,57,717.9,57z"/>
		<g>
			
				<linearGradient id="SVGID_7_" gradientUnits="userSpaceOnUse" x1="698.15" y1="87.0772" x2="698.15" y2="122.5507" gradientTransform="matrix(1 0 0 1 0 1.6)">
				<stop  offset="0" style="stop-color:#B1C6B7"/>
				<stop  offset="0.5255" style="stop-color:#A0ADA4"/>
				<stop  offset="1" style="stop-color:#878787"/>
			</linearGradient>
			<path class="st51" d="M756.1,67c4.9,0,7.4,2.5,7.4,7.4v11.9v25.3c0,4.9-2.5,7.4-7.4,7.4h-75h-40.9c-4.9,0-7.4-2.5-7.4-7.4V86.2
				V74.4c0-4.9,2.5-7.4,7.4-7.4H681H756.1z"/>
		</g>
		<g>
			
				<linearGradient id="SVGID_8_" gradientUnits="userSpaceOnUse" x1="637.2673" y1="92.4139" x2="668.325" y2="65.056" gradientTransform="matrix(1 0 0 1 0 1.6)">
				<stop  offset="0" style="stop-color:#202F36"/>
				<stop  offset="0.1412" style="stop-color:#202D35"/>
				<stop  offset="0.2824" style="stop-color:#3D4F51"/>
				<stop  offset="0.5412" style="stop-color:#152630"/>
			</linearGradient>
			<path class="st52" d="M699.2,66.1v2.6h-18.9h-38.5c-4.9,0-7.4,2.5-7.4,7.4V88v5.2h-2.6v-2.6v-5.2V73.5c0-4.9,2.5-7.4,7.4-7.4
				h38.5H699.2z"/>
			
				<linearGradient id="SVGID_9_" gradientUnits="userSpaceOnUse" x1="733.1296" y1="70.3169" x2="750.7186" y2="101.0548" gradientTransform="matrix(1 0 0 1 0 1.6)">
				<stop  offset="0" style="stop-color:#152630"/>
				<stop  offset="0.1412" style="stop-color:#202D35"/>
				<stop  offset="0.2824" style="stop-color:#3D4F51"/>
				<stop  offset="0.5412" style="stop-color:#131B1E"/>
			</linearGradient>
			<path class="st53" d="M699.2,66.1h58c4.9,0,7.4,2.5,7.4,7.4v11.9v5.2v2.6H762V88V76.1c0-4.9-2.5-7.4-7.4-7.4h-55.4L699.2,66.1
				L699.2,66.1z"/>
			
				<linearGradient id="SVGID_10_" gradientUnits="userSpaceOnUse" x1="648.5333" y1="95.2642" x2="666.6408" y2="116.936" gradientTransform="matrix(1 0 0 1 0 1.6)">
				<stop  offset="0" style="stop-color:#202F36"/>
				<stop  offset="0.1412" style="stop-color:#202D35"/>
				<stop  offset="0.2824" style="stop-color:#3D4F51"/>
				<stop  offset="0.5412" style="stop-color:#384444"/>
			</linearGradient>
			<path class="st54" d="M634.4,93.1v17.4c0,4.9,2.5,7.4,7.4,7.4h38.5h18.9v2.6h-21.5h-38.5c-4.9,0-7.4-2.5-7.4-7.4v-20H634.4z"/>
			
				<linearGradient id="SVGID_11_" gradientUnits="userSpaceOnUse" x1="756.1594" y1="99.6553" x2="738.911" y2="111.3443" gradientTransform="matrix(1 0 0 1 0 1.6)">
				<stop  offset="0" style="stop-color:#131B1E"/>
				<stop  offset="0.1412" style="stop-color:#202D35"/>
				<stop  offset="0.2824" style="stop-color:#3D4F51"/>
				<stop  offset="0.7294" style="stop-color:#384444"/>
			</linearGradient>
			<path class="st55" d="M764.6,93.1v20c0,4.9-2.5,7.4-7.4,7.4h-58v-2.6h55.4c4.9,0,7.4-2.5,7.4-7.4V93.1H764.6z"/>
		</g>
		
			<radialGradient id="SVGID_12_" cx="762.7437" cy="-128.7146" r="65.5579" gradientTransform="matrix(1 0 0 2.202 -63.3501 349.192)" gradientUnits="userSpaceOnUse">
			<stop  offset="0" style="stop-color:#FFFFFF;stop-opacity:0.2392"/>
			<stop  offset="0.5569" style="stop-color:#FFFFFF;stop-opacity:0.1961"/>
			<stop  offset="1" style="stop-color:#FFFFFF;stop-opacity:0"/>
		</radialGradient>
		<path class="st56" d="M758,65.5L758,65.5c0.1,0.1,0.1,0.2,0.1,0.3c0,0.1,0,0.1,0,0.2l-0.1,0.1H637.4c0,0-0.1,0-0.1-0.1
			s0-0.1,0-0.2s0-0.1,0-0.2l0.1-0.1C637.4,65.5,758,65.5,758,65.5z"/>
		
			<radialGradient id="SVGID_13_" cx="763.7388" cy="-74.756" r="63.2745" gradientTransform="matrix(1 0 0 2.4756 -63.3501 306.9355)" gradientUnits="userSpaceOnUse">
			<stop  offset="0" style="stop-color:#FFFFFF;stop-opacity:0.2392"/>
			<stop  offset="0.7098" style="stop-color:#FFFFFF;stop-opacity:0.1961"/>
			<stop  offset="1" style="stop-color:#FFFFFF;stop-opacity:0"/>
		</radialGradient>
		<path class="st57" d="M635.1,121.3C635,121.3,635,121.3,635.1,121.3c-0.1-0.1-0.1-0.2-0.1-0.3c0-0.1,0-0.2,0-0.3
			c0-0.1,0.1-0.1,0.1-0.1h126.7c0,0,0.1,0,0.1,0.1s0,0.2,0,0.3s0,0.2,0,0.3c0,0.1-0.1,0.1-0.1,0.1L635.1,121.3L635.1,121.3z"/>
		<g>
			<path class="st58" d="M680.3,117.9h-38.5c-4.9,0-7.4-2.5-7.4-7.4v-1.1c0.1,4.7,2.6,7,7.4,7h38.5h18.9h55.4c4.8,0,7.3-2.3,7.4-7
				v1.1c0,4.9-2.5,7.4-7.4,7.4h-55.4H680.3z"/>
		</g>
		
			<radialGradient id="SVGID_14_" cx="123.3859" cy="287.7723" r="6.6672" gradientTransform="matrix(10.79 0 1.525879e-05 0.3177 -627.188 -34.3626)" gradientUnits="userSpaceOnUse">
			<stop  offset="0" style="stop-color:#FFFFFF;stop-opacity:0.4392"/>
			<stop  offset="0.1176" style="stop-color:#FFFFFF;stop-opacity:0.2667"/>
			<stop  offset="0.2431" style="stop-color:#FFFFFF;stop-opacity:0.149"/>
			<stop  offset="0.4549" style="stop-color:#FFFFFF;stop-opacity:6.670000e-02"/>
			<stop  offset="0.6627" style="stop-color:#FFFFFF;stop-opacity:7.843138e-03"/>
			<stop  offset="0.8431" style="stop-color:#FFFFFF;stop-opacity:7.843138e-03"/>
			<stop  offset="1" style="stop-color:#FFFFFF;stop-opacity:0"/>
		</radialGradient>
		<path class="st59" d="M637.8,57.1c0-0.5,6.4-1,19.2-1.4c13.1-0.4,28.8-0.6,47.2-0.6s33.9,0.2,46.7,0.6c13.1,0.4,19.6,0.8,19.6,1.4
			c0,0.5-6.5,1-19.6,1.4c-12.8,0.4-28.3,0.6-46.7,0.6s-34.1-0.2-47.2-0.6C644.2,58.1,637.8,57.6,637.8,57.1z"/>
		
			<radialGradient id="SVGID_15_" cx="123.3209" cy="256.6047" r="6.6672" gradientTransform="matrix(10.79 0 1.525879e-05 0.3177 -622.0864 39.3874)" gradientUnits="userSpaceOnUse">
			<stop  offset="0" style="stop-color:#FFFFFF;stop-opacity:0.4392"/>
			<stop  offset="0.1176" style="stop-color:#FFFFFF;stop-opacity:0.2667"/>
			<stop  offset="0.2431" style="stop-color:#FFFFFF;stop-opacity:0.1451"/>
			<stop  offset="0.4549" style="stop-color:#FFFFFF;stop-opacity:6.670000e-02"/>
			<stop  offset="0.6627" style="stop-color:#FFFFFF;stop-opacity:7.843138e-03"/>
			<stop  offset="0.8431" style="stop-color:#FFFFFF;stop-opacity:7.843138e-03"/>
			<stop  offset="1" style="stop-color:#FFFFFF;stop-opacity:0"/>
		</radialGradient>
		<path class="st60" d="M642.2,120.9c0-0.5,6.4-1,19.2-1.4c13.1-0.4,28.8-0.6,47.2-0.6s33.9,0.2,46.7,0.6
			c13.1,0.4,19.6,0.8,19.6,1.4c0,0.5-6.5,1-19.6,1.4c-12.8,0.4-28.3,0.6-46.7,0.6s-34.1-0.2-47.2-0.6
			C648.6,121.9,642.2,121.5,642.2,120.9z"/>
		
			<radialGradient id="SVGID_16_" cx="1190.4894" cy="-1615.6918" r="6.6729" gradientTransform="matrix(0.3403 0.3403 -0.1778 0.1779 -58.4772 0.9606)" gradientUnits="userSpaceOnUse">
			<stop  offset="0" style="stop-color:#FFFFFF;stop-opacity:0.4392"/>
			<stop  offset="0.1176" style="stop-color:#FFFFFF;stop-opacity:0.2667"/>
			<stop  offset="0.2431" style="stop-color:#FFFFFF;stop-opacity:0.1412"/>
			<stop  offset="0.4549" style="stop-color:#FFFFFF;stop-opacity:6.670000e-02"/>
			<stop  offset="0.6627" style="stop-color:#FFFFFF;stop-opacity:7.843138e-03"/>
			<stop  offset="0.8431" style="stop-color:#FFFFFF;stop-opacity:7.843138e-03"/>
			<stop  offset="1" style="stop-color:#FFFFFF;stop-opacity:0"/>
		</radialGradient>
		<path class="st61" d="M631.8,116.6c0.3-0.3,0.8-0.4,1.4-0.2c0.6,0.2,1.2,0.6,1.8,1.2s1,1.2,1.2,1.8c0.2,0.6,0.1,1.1-0.2,1.4
			s-0.8,0.4-1.4,0.1c-0.6-0.2-1.2-0.6-1.8-1.2s-1-1.2-1.2-1.8C631.5,117.3,631.5,116.9,631.8,116.6z"/>
		<g>
			<g>
				<path class="st62" d="M610.7,123.6c0.5-0.6,0.7-0.9,0.8-0.9h11.7l-1,0.9l0,0H610.7z"/>
				
					<linearGradient id="SVGID_17_" gradientUnits="userSpaceOnUse" x1="639.9756" y1="235.1135" x2="623.3126" y2="132.8299" gradientTransform="matrix(1 0 0 1 0 1.6)">
					<stop  offset="0" style="stop-color:#161D25"/>
					<stop  offset="0.4784" style="stop-color:#151C22"/>
					<stop  offset="1" style="stop-color:#30363B"/>
				</linearGradient>
				<path class="st63" d="M641.6,154.5L641.6,154.5v11.2l-13.9,0.2c-0.2,0-0.5,0-0.6,0c-4.1-0.5-7.6-2.3-10.6-5.2
					c-0.1-0.1-0.2-0.2-0.3-0.3c-3.6-3.7-5.5-8-5.6-13.1v-23.7l0,0h11.5l0,0v23.6c0.1,2,0.8,3.7,2.2,5.1c0.8,0.8,1.8,1.4,2.8,1.8
					c0.6,0.2,1.2,0.4,1.9,0.4c0.2,0,0.3,0,0.5,0H641.6L641.6,154.5z"/>
				<path class="st64" d="M642.3,153.7l-0.7,0.9h-12c-0.2,0-0.3,0-0.5,0c-0.7-0.1-1.3-0.2-1.9-0.4c-1-0.4-1.9-1-2.8-1.8
					c-1.4-1.4-2.1-3.1-2.2-5.1v-23.6l1-0.9v23.6c0.1,2,0.8,3.7,2.2,5.1c0.8,0.8,1.8,1.4,2.8,1.8c0.6,0.2,1.2,0.4,1.9,0.4
					c0.2,0,0.3,0,0.5,0H642.3L642.3,153.7z"/>
				<polygon class="st65" points="641.6,165.7 641.6,154.5 641.6,154.5 642.3,153.7 642.3,163.8 				"/>
			</g>
			<g>
				<polygon class="st66" points="622.2,123.7 622.1,123.7 610.6,123.7 610.6,123.6 610.7,123.5 622.3,123.5 				"/>
				<path class="st67" d="M622.2,123.7L622.2,123.7l0.1,23.5c0.1,2,0.8,3.6,2.2,5c0.8,0.8,1.7,1.4,2.7,1.8c0.6,0.2,1.2,0.3,1.9,0.4
					c0.2,0,0.3,0,0.5,0h12h0.1v0.1v0.1h-0.1h-12c-0.2,0-0.3,0-0.5,0c-0.7-0.1-1.3-0.2-1.9-0.4c-1-0.4-2-1-2.8-1.9
					c-1.4-1.4-2.2-3.2-2.2-5.2V123.7L622.2,123.7z"/>
			</g>
			
				<radialGradient id="SVGID_18_" cx="546.2394" cy="-706.5453" r="6.6668" gradientTransform="matrix(0.791 0.7909 -0.4501 0.4501 -125.6856 37.3645)" gradientUnits="userSpaceOnUse">
				<stop  offset="0" style="stop-color:#FFFFFF;stop-opacity:0.4392"/>
				<stop  offset="0.1176" style="stop-color:#FFFFFF;stop-opacity:0.2667"/>
				<stop  offset="0.2431" style="stop-color:#FFFFFF;stop-opacity:0.149"/>
				<stop  offset="0.4549" style="stop-color:#FFFFFF;stop-opacity:6.670000e-02"/>
				<stop  offset="0.6627" style="stop-color:#FFFFFF;stop-opacity:7.843138e-03"/>
				<stop  offset="0.8431" style="stop-color:#FFFFFF;stop-opacity:7.843138e-03"/>
				<stop  offset="1" style="stop-color:#FFFFFF;stop-opacity:0"/>
			</radialGradient>
			<path class="st68" d="M619.5,146.5c0.8-0.8,1.9-1,3.4-0.6s2.9,1.3,4.3,2.7c1.4,1.3,2.2,2.8,2.6,4.2c0.4,1.5,0.2,2.6-0.5,3.4
				c-0.8,0.8-1.9,0.9-3.4,0.5s-2.9-1.3-4.2-2.6c-1.4-1.3-2.2-2.8-2.6-4.3C618.6,148.4,618.8,147.3,619.5,146.5z"/>
			
				<radialGradient id="SVGID_19_" cx="497.2506" cy="-973.9553" r="18.9466" gradientTransform="matrix(0.7071 0.7071 -0.2719 0.2719 -0.5777 72.6984)" gradientUnits="userSpaceOnUse">
				<stop  offset="0" style="stop-color:#FFFFFF;stop-opacity:0.4392"/>
				<stop  offset="0.1176" style="stop-color:#FFFFFF;stop-opacity:0.2667"/>
				<stop  offset="0.2431" style="stop-color:#FFFFFF;stop-opacity:0.1451"/>
				<stop  offset="0.4549" style="stop-color:#FFFFFF;stop-opacity:6.670000e-02"/>
				<stop  offset="0.6627" style="stop-color:#FFFFFF;stop-opacity:7.843138e-03"/>
				<stop  offset="0.8431" style="stop-color:#FFFFFF;stop-opacity:7.843138e-03"/>
				<stop  offset="1" style="stop-color:#FFFFFF;stop-opacity:0"/>
			</radialGradient>
			<path class="st69" d="M627.1,165.8c-4.2-0.6-7.8-2.4-10.9-5.5c-3.6-3.6-5.5-7.9-5.6-12.9c3.3,1.5,6.6,3.9,10,7.3
				c3.4,3.4,5.8,6.8,7.3,10.1c0.2,0.4,0.3,0.7,0.5,1.1h-0.6C627.6,165.9,627.3,165.8,627.1,165.8z"/>
			
				<radialGradient id="SVGID_20_" cx="2689.3213" cy="-1934.9708" r="6.6612" gradientTransform="matrix(0.1462 0.1462 -0.1476 0.1476 -56.6449 16.0137)" gradientUnits="userSpaceOnUse">
				<stop  offset="0" style="stop-color:#FFFFFF"/>
				<stop  offset="5.490000e-02" style="stop-color:#FFFFFF;stop-opacity:0.7373"/>
				<stop  offset="0.1843" style="stop-color:#FFFFFF;stop-opacity:0.251"/>
				<stop  offset="0.3451" style="stop-color:#FFFFFF;stop-opacity:0.1765"/>
				<stop  offset="0.5373" style="stop-color:#FFFFFF;stop-opacity:6.670000e-02"/>
				<stop  offset="0.7176" style="stop-color:#FFFFFF;stop-opacity:7.843138e-03"/>
				<stop  offset="1" style="stop-color:#FFFFFF;stop-opacity:0"/>
			</radialGradient>
			<path class="st70" d="M621.2,122.7c0.3-0.3,0.6-0.4,0.9-0.4c0.4,0,0.6,0.1,0.9,0.4c0.3,0.3,0.4,0.5,0.4,0.9s-0.1,0.7-0.4,0.9
				c-0.3,0.3-0.6,0.4-0.9,0.4c-0.4,0-0.6-0.1-0.9-0.4c-0.3-0.3-0.4-0.6-0.4-0.9C620.9,123.2,621,122.9,621.2,122.7z"/>
		</g>
		<g>
			<g>
				<path class="st62" d="M774.1,123.6l-1-0.9h11.7c0.1,0,0.3,0.3,0.8,0.9H774.1L774.1,123.6L774.1,123.6z"/>
				
					<linearGradient id="SVGID_21_" gradientUnits="userSpaceOnUse" x1="-227.7288" y1="-1542.3076" x2="-177.4868" y2="-1542.3076" gradientTransform="matrix(-0.3426 0.9395 -0.9395 -0.3426 -745.8331 -192.5211)">
					<stop  offset="0" style="stop-color:#42484E"/>
					<stop  offset="1" style="stop-color:#21262A"/>
				</linearGradient>
				<path class="st71" d="M754.6,165.7v-11.2l0,0h12c0.2,0,0.3,0,0.5,0c0.7-0.1,1.3-0.2,1.9-0.4c1-0.4,1.9-1,2.8-1.8
					c1.4-1.4,2.1-3.1,2.2-5.1v-23.6l0,0h11.5l0,0v23.7c-0.1,5.1-2,9.5-5.6,13.1c-0.1,0.1-0.2,0.2-0.3,0.3c-3,2.9-6.6,4.7-10.6,5.2
					c-0.2,0-0.4,0-0.6,0L754.6,165.7z"/>
				<path class="st64" d="M754.7,154.5l-0.7-0.9l0,0h11.8c0.2,0,0.3,0,0.5,0c0.7-0.1,1.3-0.2,1.9-0.4c1-0.4,1.9-1,2.8-1.8
					c1.4-1.4,2.1-3.1,2.2-5.1v-23.6l1,0.9v23.6c-0.1,2-0.8,3.7-2.2,5.1c-0.8,0.8-1.8,1.4-2.8,1.8c-0.6,0.2-1.2,0.4-1.9,0.4
					c-0.2,0-0.3,0-0.5,0L754.7,154.5L754.7,154.5z"/>
				<polygon class="st65" points="754,153.7 754.7,154.5 754.6,154.5 754.6,165.7 754,163.8 				"/>
			</g>
			<g>
				<polygon class="st66" points="774.2,123.7 774.1,123.7 773.9,123.5 785.6,123.5 785.7,123.6 785.7,123.7 				"/>
				<path class="st67" d="M774.1,123.7L774.1,123.7l0.1,23.5c0,2-0.8,3.7-2.2,5.2c-0.8,0.8-1.8,1.5-2.8,1.9
					c-0.6,0.2-1.3,0.4-1.9,0.4c-0.2,0-0.3,0-0.5,0h-12h-0.1v-0.1v-0.1h0.1h12c0.2,0,0.3,0,0.5,0c0.6-0.1,1.3-0.2,1.9-0.4
					c1-0.4,1.9-1,2.7-1.8c1.4-1.4,2.1-3.1,2.2-5V123.7L774.1,123.7L774.1,123.7z"/>
			</g>
			
				<radialGradient id="SVGID_22_" cx="-266.4387" cy="721.4633" r="6.6669" gradientTransform="matrix(-0.791 0.7909 0.4501 0.4501 236.3862 37.3645)" gradientUnits="userSpaceOnUse">
				<stop  offset="0" style="stop-color:#FFFFFF;stop-opacity:0.4392"/>
				<stop  offset="0.1176" style="stop-color:#FFFFFF;stop-opacity:0.2667"/>
				<stop  offset="0.2431" style="stop-color:#FFFFFF;stop-opacity:0.1451"/>
				<stop  offset="0.4549" style="stop-color:#FFFFFF;stop-opacity:6.670000e-02"/>
				<stop  offset="0.6627" style="stop-color:#FFFFFF;stop-opacity:7.843138e-03"/>
				<stop  offset="0.8431" style="stop-color:#FFFFFF;stop-opacity:7.843138e-03"/>
				<stop  offset="1" style="stop-color:#FFFFFF;stop-opacity:0"/>
			</radialGradient>
			<path class="st72" d="M776.7,146.5c-0.8-0.8-1.9-1-3.4-0.6s-2.9,1.3-4.3,2.7c-1.3,1.3-2.2,2.8-2.6,4.2c-0.4,1.5-0.2,2.6,0.5,3.4
				c0.8,0.8,1.9,0.9,3.4,0.5s2.9-1.3,4.2-2.6c1.4-1.3,2.2-2.8,2.6-4.3C777.7,148.4,777.5,147.3,776.7,146.5z"/>
			
				<radialGradient id="SVGID_23_" cx="-343.1755" cy="1296.757" r="18.9466" gradientTransform="matrix(-0.7071 0.7071 0.2719 0.2719 185.1803 49.5544)" gradientUnits="userSpaceOnUse">
				<stop  offset="0" style="stop-color:#FFFFFF;stop-opacity:0.4392"/>
				<stop  offset="0.1176" style="stop-color:#FFFFFF;stop-opacity:0.2667"/>
				<stop  offset="0.2431" style="stop-color:#FFFFFF;stop-opacity:0.1412"/>
				<stop  offset="0.4549" style="stop-color:#FFFFFF;stop-opacity:6.670000e-02"/>
				<stop  offset="0.6627" style="stop-color:#FFFFFF;stop-opacity:7.843138e-03"/>
				<stop  offset="0.8431" style="stop-color:#FFFFFF;stop-opacity:7.843138e-03"/>
				<stop  offset="1" style="stop-color:#FFFFFF;stop-opacity:0"/>
			</radialGradient>
			<path class="st73" d="M769.1,165.8c4.2-0.6,7.8-2.4,10.9-5.5c3.6-3.6,5.5-7.9,5.6-12.9c-3.3,1.5-6.6,3.9-10,7.3
				c-3.4,3.4-5.8,6.8-7.3,10.1c-0.2,0.4-0.3,0.7-0.5,1.1h0.6C768.7,165.9,768.9,165.8,769.1,165.8z"/>
			
				<radialGradient id="SVGID_24_" cx="-1707.3035" cy="2419.9646" r="6.6694" gradientTransform="matrix(-0.1462 0.1462 0.1476 0.1476 167.3441 16.0137)" gradientUnits="userSpaceOnUse">
				<stop  offset="0" style="stop-color:#FFFFFF"/>
				<stop  offset="5.490000e-02" style="stop-color:#FFFFFF;stop-opacity:0.7333"/>
				<stop  offset="0.1843" style="stop-color:#FFFFFF;stop-opacity:0.251"/>
				<stop  offset="0.3451" style="stop-color:#FFFFFF;stop-opacity:0.1725"/>
				<stop  offset="0.5373" style="stop-color:#FFFFFF;stop-opacity:6.670000e-02"/>
				<stop  offset="0.7176" style="stop-color:#FFFFFF;stop-opacity:7.843138e-03"/>
				<stop  offset="1" style="stop-color:#FFFFFF;stop-opacity:0"/>
			</radialGradient>
			<path class="st74" d="M775,122.7c-0.3-0.3-0.6-0.4-0.9-0.4c-0.4,0-0.6,0.1-0.9,0.4c-0.3,0.3-0.4,0.5-0.4,0.9s0.1,0.7,0.4,0.9
				c0.3,0.3,0.6,0.4,0.9,0.4c0.4,0,0.6-0.1,0.9-0.4c0.3-0.3,0.4-0.6,0.4-0.9C775.4,123.2,775.3,122.9,775,122.7z"/>
		</g>
		<g>
			<path class="st43" d="M723,105.4V103h2v2.4H723z M723,98.4V96h2v2.4H723z M692.5,105.4V103h2v2.4H692.5z M692.5,98.4V96h2v2.4
				H692.5z M662.4,105.4V103h2v2.4H662.4z M662.4,98.4V96h2v2.4H662.4z"/>
		</g>
		<g>
			<path class="st75" d="M736.5,83h-1.8v-7.5h2.2l1.7,3.7l1.6-3.7h2.2V83h-1.9v-5l-1.4,3.2h-1.3l-1.4-3.2L736.5,83L736.5,83z
				 M707.9,75.4c0.4,0.1,0.8,0.2,1.2,0.4v1.7h-0.2c-0.3-0.2-0.6-0.4-1-0.6c-0.4-0.1-0.8-0.2-1.3-0.2c-0.2,0-0.3,0-0.4,0
				c-0.1,0-0.3,0.1-0.4,0.2c-0.1,0.1-0.2,0.1-0.3,0.2s-0.1,0.2-0.1,0.3c0,0.2,0.1,0.4,0.2,0.5c0.1,0.1,0.4,0.2,0.8,0.3
				c0.3,0.1,0.5,0.1,0.7,0.2s0.5,0.1,0.7,0.2c0.5,0.2,0.9,0.5,1.2,0.8s0.4,0.7,0.4,1.3c0,0.8-0.3,1.3-0.9,1.8
				c-0.6,0.5-1.4,0.7-2.4,0.7c-0.6,0-1.1-0.1-1.5-0.2c-0.5-0.1-0.9-0.2-1.2-0.4v-1.8h0.1c0.4,0.3,0.8,0.6,1.3,0.7
				c0.5,0.2,0.9,0.3,1.3,0.3c0.1,0,0.3,0,0.4,0c0.2,0,0.3-0.1,0.4-0.1c0.1-0.1,0.2-0.1,0.3-0.2s0.1-0.3,0.1-0.4s-0.1-0.3-0.2-0.5
				c-0.1-0.1-0.3-0.2-0.5-0.3c-0.3-0.1-0.5-0.1-0.8-0.2s-0.6-0.1-0.8-0.2c-0.6-0.2-1-0.5-1.3-0.8c-0.2-0.3-0.3-0.8-0.3-1.3
				c0-0.7,0.3-1.3,0.9-1.7c0.6-0.4,1.4-0.6,2.3-0.6C707,75.3,707.4,75.3,707.9,75.4z M710,77.7c0-0.7,0.3-1.3,0.9-1.7
				c0.6-0.4,1.4-0.6,2.3-0.6c0.4,0,0.9,0,1.3,0.1c0.4,0.1,0.8,0.2,1.2,0.4v1.7h-0.2c-0.3-0.2-0.6-0.4-1-0.6
				c-0.4-0.1-0.8-0.2-1.3-0.2c-0.2,0-0.3,0-0.4,0c-0.1,0-0.3,0.1-0.4,0.2c-0.1,0.1-0.2,0.1-0.3,0.2s-0.1,0.2-0.1,0.3
				c0,0.2,0.1,0.4,0.2,0.5c0.1,0.1,0.4,0.2,0.8,0.3c0.3,0.1,0.5,0.1,0.7,0.2s0.5,0.1,0.7,0.2c0.5,0.2,0.9,0.5,1.2,0.8
				s0.4,0.7,0.4,1.3c0,0.8-0.3,1.3-0.9,1.8c-0.6,0.5-1.4,0.7-2.4,0.7c-0.6,0-1.1-0.1-1.5-0.2c-0.5-0.1-0.9-0.2-1.2-0.4v-1.8h0.1
				c0.4,0.3,0.8,0.6,1.3,0.7c0.5,0.2,0.9,0.3,1.3,0.3c0.1,0,0.3,0,0.4,0c0.2,0,0.3-0.1,0.4-0.1c0.1-0.1,0.2-0.1,0.3-0.2
				s0.1-0.3,0.1-0.4s-0.1-0.3-0.2-0.5c-0.1-0.1-0.3-0.2-0.5-0.3c-0.3-0.1-0.5-0.1-0.8-0.2s-0.6-0.1-0.8-0.2c-0.6-0.2-1-0.5-1.3-0.8
				C710.1,78.6,710,78.2,710,77.7z M685.2,81.2h-1.3l-1.4-3.2v5h-1.8v-7.5h2.2l1.7,3.7l1.6-3.7h2.2V83h-1.9v-5L685.2,81.2z
				 M671.6,75.4h2.2l1.7,3.7l1.6-3.7h2.2V83h-1.9v-5l-1.4,3.2h-1.3l-1.4-3.2v5h-1.8C671.6,83,671.6,75.4,671.6,75.4z M744.5,75.9
				c0.6-0.4,1.4-0.6,2.3-0.6c0.4,0,0.9,0,1.3,0.1c0.4,0.1,0.8,0.2,1.2,0.4v1.7H749c-0.3-0.2-0.6-0.4-1-0.6c-0.4-0.1-0.8-0.2-1.3-0.2
				c-0.2,0-0.3,0-0.4,0c-0.1,0-0.3,0.1-0.4,0.2c-0.1,0.1-0.2,0.1-0.3,0.2s-0.1,0.2-0.1,0.3c0,0.2,0.1,0.4,0.2,0.5
				c0.1,0.1,0.4,0.2,0.8,0.3c0.3,0.1,0.5,0.1,0.7,0.2s0.5,0.1,0.7,0.2c0.5,0.2,0.9,0.5,1.2,0.8s0.4,0.7,0.4,1.3
				c0,0.8-0.3,1.3-0.9,1.8c-0.6,0.5-1.4,0.7-2.4,0.7c-0.6,0-1.1-0.1-1.5-0.2c-0.5-0.1-0.9-0.2-1.2-0.4v-1.8h0.1
				c0.4,0.3,0.8,0.6,1.3,0.7c0.5,0.2,0.9,0.3,1.3,0.3c0.1,0,0.3,0,0.4,0c0.2,0,0.3-0.1,0.4-0.1c0.1-0.1,0.2-0.1,0.3-0.2
				s0.1-0.3,0.1-0.4s-0.1-0.3-0.2-0.5c-0.1-0.1-0.3-0.2-0.5-0.3c-0.3-0.1-0.5-0.1-0.8-0.2s-0.6-0.1-0.8-0.2c-0.6-0.2-1-0.5-1.3-0.8
				c-0.2-0.3-0.3-0.8-0.3-1.3C743.6,77,743.9,76.4,744.5,75.9z M655.8,75.4h1.9V83h-1.9v-3.3h-2.6V83h-1.9v-7.5h1.9v2.8h2.6V75.4z
				 M649.8,83h-1.9v-3.3h-2.6V83h-1.9v-7.5h1.9v2.8h2.6v-2.8h1.9V83z"/>
		</g>
	</g>
</g>
<g>
	<g>
		<path class="st76" d="M645.2,131c2.2-2.2,4.9-3.3,8-3.3s5.8,1.1,8,3.3s3.3,4.9,3.3,8s-1.1,5.8-3.3,8s-4.9,3.3-8,3.3
			s-5.8-1.1-8-3.3s-3.3-4.9-3.3-8C641.9,135.8,643,133.2,645.2,131z"/>
		<path class="st76" d="M645.2,131c2.2-2.2,4.9-3.3,8-3.3s5.8,1.1,8,3.3s3.3,4.9,3.3,8s-1.1,5.8-3.3,8s-4.9,3.3-8,3.3
			s-5.8-1.1-8-3.3s-3.3-4.9-3.3-8C641.9,135.8,643,133.2,645.2,131z"/>
		<path class="st77" d="M653.2,126.4c2.9,0,5.4,1,7.4,3.1c2,2,3,4.5,3,7.4s-1,5.4-3,7.4c-2.1,2.1-4.5,3.1-7.4,3.1s-5.4-1-7.4-3.1
			c-2.1-2.1-3.1-4.5-3.1-7.4s1-5.4,3.1-7.4C647.9,127.4,650.4,126.4,653.2,126.4z"/>
		<path class="st77" d="M653.2,126.4c2.9,0,5.4,1,7.4,3.1c2,2,3,4.5,3,7.4s-1,5.4-3,7.4c-2.1,2.1-4.5,3.1-7.4,3.1s-5.4-1-7.4-3.1
			c-2.1-2.1-3.1-4.5-3.1-7.4s1-5.4,3.1-7.4C647.9,127.4,650.4,126.4,653.2,126.4z"/>
		<path class="st78" d="M644.6,128.2c2.4-2.4,5.3-3.6,8.6-3.6c3.4,0,6.3,1.2,8.7,3.6c2.4,2.4,3.5,5.2,3.5,8.6c0,3.4-1.2,6.2-3.5,8.6
			c-2.4,2.4-5.3,3.6-8.7,3.6s-6.2-1.2-8.6-3.6c-2.4-2.4-3.6-5.3-3.6-8.6C641.1,133.5,642.2,130.6,644.6,128.2z M653.2,126.4
			c-2.9,0-5.4,1-7.4,3.1c-2.1,2-3.1,4.5-3.1,7.4s1,5.4,3.1,7.4c2.1,2.1,4.5,3.1,7.4,3.1s5.4-1,7.4-3.1s3-4.5,3-7.4s-1-5.4-3-7.4
			C658.6,127.4,656.2,126.4,653.2,126.4z"/>
		<path class="st78" d="M644.6,128.2c2.4-2.4,5.3-3.6,8.6-3.6c3.4,0,6.3,1.2,8.7,3.6c2.4,2.4,3.5,5.2,3.5,8.6c0,3.4-1.2,6.2-3.5,8.6
			c-2.4,2.4-5.3,3.6-8.7,3.6s-6.2-1.2-8.6-3.6c-2.4-2.4-3.6-5.3-3.6-8.6C641.1,133.5,642.2,130.6,644.6,128.2z M653.2,126.4
			c-2.9,0-5.4,1-7.4,3.1c-2.1,2-3.1,4.5-3.1,7.4s1,5.4,3.1,7.4c2.1,2.1,4.5,3.1,7.4,3.1s5.4-1,7.4-3.1s3-4.5,3-7.4s-1-5.4-3-7.4
			C658.6,127.4,656.2,126.4,653.2,126.4z"/>
		
			<radialGradient id="SVGID_25_" cx="653.4" cy="135.3" r="11.5298" gradientTransform="matrix(1 0 0 1 0 1.6)" gradientUnits="userSpaceOnUse">
			<stop  offset="0" style="stop-color:#1A40A3;stop-opacity:0.251"/>
			<stop  offset="0.5922" style="stop-color:#1A40A3;stop-opacity:0"/>
			<stop  offset="0.6863" style="stop-color:#C3CCE6;stop-opacity:4.310000e-02"/>
			<stop  offset="0.8667" style="stop-color:#FFFFFF;stop-opacity:9.410000e-02"/>
			<stop  offset="1" style="stop-color:#1A40A3;stop-opacity:0"/>
		</radialGradient>
		<path class="st79" d="M661.5,128.8c2.3,2.3,3.4,5,3.4,8.1c0,3.2-1.1,5.9-3.4,8.1c-2.2,2.3-4.9,3.4-8.1,3.4s-5.9-1.1-8.1-3.4
			c-2.3-2.3-3.4-5-3.4-8.1s1.1-5.8,3.4-8.1c2.3-2.3,5-3.4,8.1-3.4S659.3,126.5,661.5,128.8z"/>
		
			<radialGradient id="start_2_" cx="653.4" cy="135.3" r="11.5298" gradientTransform="matrix(1 0 0 1 0 1.6)" gradientUnits="userSpaceOnUse">
			<stop  offset="0" style="stop-color:#1A40A3;stop-opacity:0.251"/>
			<stop  offset="0.5922" style="stop-color:#1A40A3;stop-opacity:0"/>
			<stop  offset="0.6863" style="stop-color:#C3CCE6;stop-opacity:4.310000e-02"/>
			<stop  offset="0.8667" style="stop-color:#FFFFFF;stop-opacity:9.410000e-02"/>
			<stop  offset="1" style="stop-color:#1A40A3;stop-opacity:0"/>
		</radialGradient>
		<path id="start" class="st80" d="M661.5,128.8c2.3,2.3,3.4,5,3.4,8.1c0,3.2-1.1,5.9-3.4,8.1c-2.2,2.3-4.9,3.4-8.1,3.4
			s-5.9-1.1-8.1-3.4c-2.3-2.3-3.4-5-3.4-8.1s1.1-5.8,3.4-8.1c2.3-2.3,5-3.4,8.1-3.4S659.3,126.5,661.5,128.8z"/>
	</g>
	<g>
		<polygon id="start_1_" class="st81" points="651.7,142.2 651.7,132.4 658.4,137.3 		"/>
	</g>
</g>
<g>
	<path class="st76" d="M708.9,130.8c2.2,2.2,3.3,4.9,3.3,8s-1.1,5.8-3.3,8s-4.9,3.3-8,3.3s-5.8-1.1-8-3.3s-3.3-4.9-3.3-8
		s1.1-5.8,3.3-8s4.9-3.3,8-3.3S706.7,128.6,708.9,130.8z"/>
	<path class="st82" d="M692.9,128.7c2.2-2.2,4.9-3.3,8-3.3s5.8,1.1,8,3.3c2.2,2.2,3.3,4.9,3.3,8s-1.1,5.8-3.3,8s-4.9,3.3-8,3.3
		s-5.8-1.1-8-3.3s-3.3-4.9-3.3-8C689.5,133.6,690.7,130.9,692.9,128.7z"/>
	<path class="st83" d="M692.9,128.7c2.2-2.2,4.9-3.3,8-3.3s5.8,1.1,8,3.3c2.2,2.2,3.3,4.9,3.3,8s-1.1,5.8-3.3,8s-4.9,3.3-8,3.3
		s-5.8-1.1-8-3.3s-3.3-4.9-3.3-8C689.5,133.6,690.7,130.9,692.9,128.7z"/>
	
		<radialGradient id="stop_2_" cx="1364.9695" cy="95.021" r="20.2513" gradientTransform="matrix(0.5692 0 0 0.5692 -76.0406 82.66)" gradientUnits="userSpaceOnUse">
		<stop  offset="0" style="stop-color:#E1282E;stop-opacity:0.251"/>
		<stop  offset="0.5922" style="stop-color:#EB2234;stop-opacity:0"/>
		<stop  offset="0.6863" style="stop-color:#ED2333;stop-opacity:4.310000e-02"/>
		<stop  offset="0.7922" style="stop-color:#FF9597;stop-opacity:0.3059"/>
		<stop  offset="1" style="stop-color:#E4192C;stop-opacity:0"/>
	</radialGradient>
	<path id="stop" class="st84" d="M700.9,125.3c3.2,0,5.9,1.1,8.1,3.4c2.2,2.3,3.4,5,3.4,8.1s-1.1,5.9-3.4,8.1
		c-2.2,2.3-4.9,3.4-8.1,3.4c-3.2,0-5.9-1.1-8.1-3.4c-2.2-2.2-3.4-4.9-3.4-8.1s1.1-5.9,3.4-8.1C695,126.4,697.7,125.3,700.9,125.3z"
		/>
	<g>
		<rect id="stop_1_" x="697.3" y="133.5" class="st81" width="7" height="7"/>
	</g>
</g>
<g>
	<g>
		<path class="st76" d="M746.7,128.8c2.4-2.4,5.3-3.6,8.6-3.6c3.4,0,6.3,1.2,8.6,3.6c2.4,2.4,3.6,5.3,3.6,8.6s-1.2,6.3-3.6,8.6
			c-2.4,2.4-5.3,3.6-8.6,3.6c-3.4,0-6.3-1.2-8.6-3.6c-2.4-2.4-3.6-5.3-3.6-8.6C743.2,134.1,744.4,131.2,746.7,128.8z"/>
		<path class="st76" d="M746.7,128.8c2.4-2.4,5.3-3.6,8.6-3.6c3.4,0,6.3,1.2,8.6,3.6c2.4,2.4,3.6,5.3,3.6,8.6s-1.2,6.3-3.6,8.6
			c-2.4,2.4-5.3,3.6-8.6,3.6c-3.4,0-6.3-1.2-8.6-3.6c-2.4-2.4-3.6-5.3-3.6-8.6C743.2,134.1,744.4,131.2,746.7,128.8z"/>
		<path class="st77" d="M755.4,123.9c3.1,0,5.8,1.1,8,3.3c2.2,2.2,3.3,4.8,3.3,8c0,3.1-1.1,5.8-3.3,8s-4.9,3.3-8,3.3s-5.8-1.1-8-3.3
			s-3.3-4.9-3.3-8s1.1-5.8,3.3-8C749.6,125,752.3,123.9,755.4,123.9z"/>
		<path class="st77" d="M755.4,123.9c3.1,0,5.8,1.1,8,3.3c2.2,2.2,3.3,4.8,3.3,8c0,3.1-1.1,5.8-3.3,8s-4.9,3.3-8,3.3s-5.8-1.1-8-3.3
			s-3.3-4.9-3.3-8s1.1-5.8,3.3-8C749.6,125,752.3,123.9,755.4,123.9z"/>
		<path class="st78" d="M746.1,125.9c2.6-2.6,5.7-3.9,9.3-3.9s6.8,1.3,9.3,3.9c2.5,2.5,3.8,5.6,3.8,9.3c0,3.6-1.3,6.7-3.8,9.3
			c-2.6,2.6-5.7,3.9-9.3,3.9s-6.7-1.3-9.3-3.9c-2.6-2.6-3.9-5.7-3.9-9.3C742.2,131.5,743.5,128.5,746.1,125.9z M755.4,123.9
			c-3.1,0-5.8,1.1-8,3.3c-2.2,2.2-3.3,4.8-3.3,8c0,3.1,1.1,5.8,3.3,8s4.9,3.3,8,3.3s5.8-1.1,8-3.3s3.3-4.9,3.3-8s-1.1-5.8-3.3-8
			C761.2,125,758.5,123.9,755.4,123.9z"/>
		<path class="st78" d="M746.1,125.9c2.6-2.6,5.7-3.9,9.3-3.9s6.8,1.3,9.3,3.9c2.5,2.5,3.8,5.6,3.8,9.3c0,3.6-1.3,6.7-3.8,9.3
			c-2.6,2.6-5.7,3.9-9.3,3.9s-6.7-1.3-9.3-3.9c-2.6-2.6-3.9-5.7-3.9-9.3C742.2,131.5,743.5,128.5,746.1,125.9z M755.4,123.9
			c-3.1,0-5.8,1.1-8,3.3c-2.2,2.2-3.3,4.8-3.3,8c0,3.1,1.1,5.8,3.3,8s4.9,3.3,8,3.3s5.8-1.1,8-3.3s3.3-4.9,3.3-8s-1.1-5.8-3.3-8
			C761.2,125,758.5,123.9,755.4,123.9z"/>
		
			<radialGradient id="SVGID_26_" cx="755.5252" cy="133.6059" r="12.4254" gradientTransform="matrix(1 0 0 1 0 1.6)" gradientUnits="userSpaceOnUse">
			<stop  offset="0" style="stop-color:#1A40A3;stop-opacity:0.251"/>
			<stop  offset="0.5922" style="stop-color:#1A40A3;stop-opacity:0"/>
			<stop  offset="0.6863" style="stop-color:#C3CCE6;stop-opacity:4.310000e-02"/>
			<stop  offset="0.8667" style="stop-color:#FFFFFF;stop-opacity:9.410000e-02"/>
			<stop  offset="1" style="stop-color:#1A40A3;stop-opacity:0"/>
		</radialGradient>
		<path class="st85" d="M764.3,126.5c2.4,2.4,3.6,5.3,3.6,8.7s-1.2,6.3-3.6,8.8c-2.4,2.4-5.3,3.6-8.7,3.6s-6.3-1.2-8.8-3.6
			c-2.4-2.4-3.6-5.3-3.6-8.8c0-3.4,1.2-6.3,3.6-8.7c2.4-2.4,5.3-3.6,8.8-3.6S761.9,124,764.3,126.5z"/>
		
			<radialGradient id="reset_1_" cx="755.5252" cy="133.6059" r="12.4254" gradientTransform="matrix(1 0 0 1 0 1.6)" gradientUnits="userSpaceOnUse">
			<stop  offset="0" style="stop-color:#1A40A3;stop-opacity:0.251"/>
			<stop  offset="0.5922" style="stop-color:#1A40A3;stop-opacity:0"/>
			<stop  offset="0.6863" style="stop-color:#C3CCE6;stop-opacity:4.310000e-02"/>
			<stop  offset="0.8667" style="stop-color:#FFFFFF;stop-opacity:9.410000e-02"/>
			<stop  offset="1" style="stop-color:#1A40A3;stop-opacity:0"/>
		</radialGradient>
		<path id="reset" class="st86" d="M764.3,126.5c2.4,2.4,3.6,5.3,3.6,8.7s-1.2,6.3-3.6,8.8c-2.4,2.4-5.3,3.6-8.7,3.6
			s-6.3-1.2-8.8-3.6c-2.4-2.4-3.6-5.3-3.6-8.8c0-3.4,1.2-6.3,3.6-8.7c2.4-2.4,5.3-3.6,8.8-3.6S761.9,124,764.3,126.5z"/>
	</g>
	<path class="st81" d="M752.3,132.3l-0.7-1.1c0.3-0.4,0.8-0.8,1.3-1.1c1.3-0.8,2.6-1.1,4.1-0.8s2.6,1.1,3.4,2.4s1.1,2.6,0.8,4.1
		s-1.1,2.6-2.4,3.4c-1.3,0.8-2.6,1.1-4.1,0.7c-1.4-0.3-2.4-1-3.2-2.1l1-0.6c0.6,0.8,1.5,1.4,2.5,1.6c1.1,0.3,2.2,0.1,3.2-0.6
		c1-0.6,1.6-1.5,1.8-2.7s0-2.2-0.6-3.2s-1.5-1.6-2.7-1.8c-1.1-0.2-2.2,0-3.2,0.6C753,131.4,752.6,131.8,752.3,132.3z"/>
	<g>
		<polygon class="st81" points="752.8,130.9 754.6,132.6 750.2,132.8 752,128.3 		"/>
	</g>
</g>
<rect x="631.2" y="95.5" class="st8" width="39" height="18.5"/>
<text id="hr" transform="matrix(1 0 0 1 642.6172 106.6742)" class="st9 st87" id="hr">00</text>
<rect x="659.8" y="95.6" class="st8" width="39" height="18.5"/>
<text id="min" transform="matrix(1 0 0 1 671.168 106.8427)" class="st9 st87" id="min">00</text>
<rect x="690.1" y="95.6" class="st8" width="39" height="18.5"/>
<text id="sec" transform="matrix(1 0 0 1 701.5078 106.8427)" class="st9 st87" id="sec">00</text>
<rect x="721.9" y="95.3" class="st8" width="39" height="18.5"/>
<text id="count" transform="matrix(1 0 0 1 733.3008 106.5204)" class="st9 st87" id="count">00</text>
<rect x="663.1" y="177.2" class="st38" width="71" height="24.8"/>
<rect x="660.8" y="184.9" class="st8" width="73.1" height="22.8"/>
<text transform="matrix(1 0 0 1 671.3004 193.3885)" class="st9 st37">Stopwatch</text>
<line class="st35" x1="237.9" y1="140.2" x2="254.6" y2="140.2"/>
<path class="st88" d="M340.8,136.9l-1.8,2.7l-38.5-23.7c-0.4,0.2-0.9,0.3-1.4,0.3c-1.9,0-3.5-1.5-3.5-3.4c0-1.8,1.5-3.3,3.5-3.3
	c1.9,0,3.5,1.5,3.5,3.3c0,0.2,0,0.4,0,0.5L340.8,136.9z"/>
<path class="st88" d="M254.3,141.5l0.1-2.9l40.5,0c0.2-0.4,0.5-0.6,0.9-0.9c1.5-0.9,3.3-0.5,4.2,0.9c0.8,1.4,0.4,3.3-1.1,4.2
	c-1.5,0.9-3.4,0.5-4.2-0.9c-0.1-0.1-0.2-0.3-0.2-0.4L254.3,141.5z"/>
</svg>
